<?xml version="1.0" encoding="UTF-8"?>
<svg xmlns="http://www.w3.org/2000/svg" xmlns:xlink="http://www.w3.org/1999/xlink" width="20px" height="20px" viewBox="0 0 20 20" version="1.1">
<g id="surface1">
<path style=" stroke:none;fill-rule:nonzero;fill:rgb(0%,0%,0%);fill-opacity:1;" d="M 16.609375 6.222656 L 10.65625 0.273438 C 10.292969 -0.0898438 9.707031 -0.0898438 9.34375 0.273438 L 3.390625 6.222656 C 3.027344 6.585938 3.027344 7.175781 3.390625 7.539062 C 3.570312 7.722656 3.808594 7.8125 4.046875 7.8125 C 4.285156 7.8125 4.523438 7.722656 4.707031 7.539062 L 9.070312 3.175781 L 9.070312 19.070312 C 9.070312 19.582031 9.488281 20 10 20 C 10.511719 20 10.929688 19.582031 10.929688 19.070312 L 10.929688 3.175781 L 15.292969 7.539062 C 15.65625 7.902344 16.246094 7.902344 16.609375 7.539062 C 16.972656 7.175781 16.972656 6.585938 16.609375 6.222656 Z M 16.609375 6.222656 "/>
</g>
</svg>
